HIERARCHY
ROOT Hips
{
	OFFSET -0.001795 -0.223333 0.028219
	CHANNELS 6 Xposition Yposition Zposition Zrotation Yrotation Xrotation 
	JOINT LeftUpLeg
	{
		OFFSET 0.069520 -0.091406 -0.006815
		CHANNELS 3 Zrotation Yrotation Xrotation
		JOINT LeftLeg
		{
			OFFSET 0.034277 -0.375199 -0.004496
			CHANNELS 3 Zrotation Yrotation Xrotation
			JOINT LeftFoot
			{
				OFFSET -0.013596 -0.397961 -0.043693
				CHANNELS 3 Zrotation Yrotation Xrotation
				JOINT LeftToe
				{
					OFFSET 0.026358 -0.055791 0.119288
					CHANNELS 3 Zrotation Yrotation Xrotation
					End Site
					{
						OFFSET 0.000000 0.000000 0.000000
					}
				}
			}
		}
	}
	JOINT RightUpLeg
	{
		OFFSET -0.067670 -0.090522 -0.004320
		CHANNELS 3 Zrotation Yrotation Xrotation
		JOINT RightLeg
		{
			OFFSET -0.038290 -0.382569 -0.008850
			CHANNELS 3 Zrotation Yrotation Xrotation
			JOINT RightFoot
			{
				OFFSET 0.015774 -0.398415 -0.042312
				CHANNELS 3 Zrotation Yrotation Xrotation
				JOINT RightToe
				{
					OFFSET -0.025372 -0.048144 0.123348
					CHANNELS 3 Zrotation Yrotation Xrotation
					End Site
					{
						OFFSET 0.000000 0.000000 0.000000
					}
				}
			}
		}
	}
	JOINT Spine
	{
		OFFSET -0.002533 0.108963 -0.026696
		CHANNELS 3 Zrotation Yrotation Xrotation
		JOINT Spine1
		{
			OFFSET 0.005487 0.135180 0.001092
			CHANNELS 3 Zrotation Yrotation Xrotation
			JOINT Spine2
			{
				OFFSET 0.001457 0.052922 0.025425
				CHANNELS 3 Zrotation Yrotation Xrotation
				JOINT Neck
				{
					OFFSET -0.002778 0.213870 -0.042857
					CHANNELS 3 Zrotation Yrotation Xrotation
					JOINT Head
					{
						OFFSET 0.005152 0.064970 0.051349
						CHANNELS 3 Zrotation Yrotation Xrotation
						End Site
						{
							OFFSET 0.000000 0.000000 0.000000
						}
					}
				}
				JOINT LeftShoulder
				{
					OFFSET 0.078845 0.121749 -0.034090
					CHANNELS 3 Zrotation Yrotation Xrotation
					JOINT LeftArm
					{
						OFFSET 0.090977 0.030469 -0.008868
						CHANNELS 3 Zrotation Yrotation Xrotation
						JOINT LeftForeArm
						{
							OFFSET 0.259612 -0.012772 -0.027456
							CHANNELS 3 Zrotation Yrotation Xrotation
							JOINT LeftHand
							{
								OFFSET 0.249234 0.008986 -0.001171
								CHANNELS 3 Zrotation Yrotation Xrotation
								End Site
								{
									OFFSET 0.000000 0.000000 0.000000
								}
							}
						}
					}
				}
				JOINT RightShoulder
				{
					OFFSET -0.081759 0.118833 -0.038615
					CHANNELS 3 Zrotation Yrotation Xrotation
					JOINT RightArm
					{
						OFFSET -0.096012 0.032551 -0.009143
						CHANNELS 3 Zrotation Yrotation Xrotation
						JOINT RightForeArm
						{
							OFFSET -0.253742 -0.013329 -0.021401
							CHANNELS 3 Zrotation Yrotation Xrotation
							JOINT RightHand
							{
								OFFSET -0.255298 0.007772 -0.005559
								CHANNELS 3 Zrotation Yrotation Xrotation
								End Site
								{
									OFFSET 0.000000 0.000000 0.000000
								}
							}
						}
					}
				}
			}
		}
	}
}
MOTION
Frames: 9
Frame Time: 0.050000
0.050245 0.936744 1.469158 -4.353136 -1.101911 -4.683198 0.762564 -0.389672 -4.641380 0.589887 -0.625757 14.212251 -0.154111 -1.236881 -1.851047 0.000000 0.000000 0.000000 3.131926 1.917931 -15.076868 1.298567 1.346457 43.423885 -1.659546 -3.867916 -0.773138 0.000000 0.000000 0.000000 -2.504603 -0.267993 13.246123 -2.827960 1.354532 -4.975948 -2.089291 5.213287 10.631714 4.226068 0.105502 -24.849086 0.000000 0.000000 0.000000 -19.921368 -18.166193 6.687142 -39.312975 -26.549432 3.557721 5.595234 -15.299193 -0.246732 0.000000 0.000000 0.000000 12.568553 18.873459 8.899724 53.986923 40.595245 13.677285 -13.353195 24.992514 -1.608578 0.000000 0.000000 0.000000 
0.055771 0.938572 1.488662 -4.514136 -0.130170 -4.134005 0.424068 -0.293016 -3.362105 0.891311 -0.674039 13.163858 -0.552161 -2.310700 -2.141877 0.000000 0.000000 0.000000 3.807555 2.368949 -17.892787 0.087207 1.605468 39.691766 -0.978466 -2.303940 -0.393267 0.000000 0.000000 0.000000 -2.330968 -0.298994 13.214061 -2.062787 1.029034 -4.184890 -2.746406 4.608438 9.790495 4.810468 -0.232246 -24.509873 0.000000 0.000000 0.000000 -18.949171 -19.549912 7.360380 -39.336389 -30.230129 4.809466 8.077151 -16.138317 -0.616948 0.000000 0.000000 0.000000 12.331196 17.489943 8.201066 55.540125 39.520805 13.714371 -14.089622 24.820724 -1.711497 0.000000 0.000000 0.000000 
0.060456 0.939947 1.509106 -4.526692 0.630549 -3.711716 0.195902 -0.150373 -1.687995 1.036750 -0.637841 11.430134 -0.961536 -3.346869 -2.296954 0.000000 0.000000 0.000000 4.756839 2.755291 -19.747094 -1.271858 1.825787 33.770979 -0.383447 -1.409601 0.913486 0.000000 0.000000 0.000000 -2.149674 -0.326956 13.120252 -1.594222 0.834607 -4.584783 -3.264381 3.832309 10.272058 5.140274 -0.428201 -24.761209 0.000000 0.000000 0.000000 -18.005106 -19.838289 7.572243 -39.226144 -33.350654 5.730242 10.125799 -18.183333 -1.021353 0.000000 0.000000 0.000000 12.382146 16.691286 7.781097 56.712683 37.650044 13.003432 -13.904450 25.226791 -1.691372 0.000000 0.000000 0.000000 
0.064183 0.940240 1.530682 -4.619952 1.629708 -3.044263 -0.002979 -0.006407 -0.062110 1.652411 -0.666809 9.371089 -1.097891 -4.082283 -2.942064 0.000000 0.000000 0.000000 5.271155 3.116883 -21.907052 -1.546854 1.520737 27.453386 0.324221 -0.450842 2.615947 0.000000 0.000000 0.000000 -1.854089 -0.368867 13.018475 -0.846976 0.521510 -4.663075 -4.117468 3.071900 10.074140 5.098052 -0.446132 -24.489012 0.000000 0.000000 0.000000 -17.525980 -20.321637 7.821062 -39.588043 -35.950811 6.686777 11.446190 -17.983182 -1.212666 0.000000 0.000000 0.000000 13.047685 15.416978 7.256980 58.248283 35.718998 12.386056 -14.732417 25.511525 -1.844652 0.000000 0.000000 0.000000 
0.066610 0.939220 1.553202 -4.646328 1.677005 -1.905308 -0.456128 0.111978 1.162555 2.268977 -0.659802 7.306844 -1.341567 -4.812137 -3.204063 0.000000 0.000000 0.000000 6.036207 3.522660 -23.819605 -1.514107 1.183879 20.538849 1.515977 1.428675 4.539757 0.000000 0.000000 0.000000 -1.495145 -0.386041 12.502493 -1.082721 0.625459 -4.841137 -4.595857 2.428517 9.520506 5.495424 -0.699454 -24.623655 0.000000 0.000000 0.000000 -16.204658 -20.051683 7.737732 -40.437479 -37.612875 7.449265 12.808642 -18.134364 -1.421283 0.000000 0.000000 0.000000 13.750978 14.700924 6.906744 59.120793 33.478972 11.360155 -15.166273 26.368404 -2.005963 0.000000 0.000000 0.000000 
0.067326 0.937392 1.576616 -4.425209 2.513683 -0.850034 -0.854886 0.212463 2.105899 2.768163 -0.698784 6.562869 -1.078260 -4.514519 -3.646041 0.000000 0.000000 0.000000 6.537750 3.726570 -24.864747 -1.664404 0.951194 15.331508 2.500511 2.785602 6.396917 0.000000 0.000000 0.000000 -1.351262 -0.406123 12.453180 -1.147235 0.669443 -5.214025 -5.595760 2.047218 9.413486 5.664209 -0.732731 -24.802140 0.000000 0.000000 0.000000 -15.612758 -21.288013 8.281494 -39.327910 -39.732321 7.913299 13.059332 -15.878374 -1.269848 0.000000 0.000000 0.000000 15.601118 13.744675 6.719146 58.166182 32.719016 10.605316 -15.735026 26.819638 -2.129216 0.000000 0.000000 0.000000 
0.066144 0.934566 1.601981 -4.556651 2.938144 -0.378041 -0.665765 0.290150 3.012798 2.898193 -0.721276 6.576703 -1.105475 -4.936145 -4.156946 0.000000 0.000000 0.000000 8.082921 4.067594 -25.218660 -3.250602 1.245712 13.842173 3.902970 4.857551 8.357409 0.000000 0.000000 0.000000 -1.032668 -0.452386 12.582101 -1.339058 0.754414 -5.151141 -6.594852 1.576069 8.935709 6.745176 -1.391440 -24.148362 0.000000 0.000000 0.000000 -14.926687 -22.243850 8.719339 -37.662929 -40.986164 7.896103 13.077377 -13.503465 -1.069754 0.000000 0.000000 0.000000 16.600166 13.360991 6.620480 58.268340 32.173307 10.335340 -16.573878 27.315887 -2.348443 0.000000 0.000000 0.000000 
0.063380 0.932156 1.630458 -4.633427 3.414357 0.272396 -0.173672 0.292159 3.292594 2.592104 -0.790296 8.408066 -0.834730 -5.297126 -5.591477 0.000000 0.000000 0.000000 9.272696 4.403079 -25.981349 -4.213811 1.509150 14.522753 4.333339 5.253822 9.405317 0.000000 0.000000 0.000000 -1.124313 -0.436817 12.339317 -1.640686 0.879607 -4.787575 -6.883590 0.809503 9.090083 6.762805 -1.295998 -25.335167 0.000000 0.000000 0.000000 -14.964996 -23.227849 9.353416 -35.654133 -41.936374 7.612823 13.984145 -11.693329 -0.997993 0.000000 0.000000 0.000000 16.768818 13.335578 6.521900 57.452941 31.997985 10.005981 -18.131218 27.861592 -2.758871 0.000000 0.000000 0.000000 
0.059623 0.931446 1.663313 -5.129341 4.449611 0.652415 1.304179 0.254989 3.902353 2.514780 -0.971128 11.169387 -0.996850 -6.313587 -6.329921 0.000000 0.000000 0.000000 10.257759 4.490369 -25.683613 -4.337973 1.563025 15.248558 4.278951 4.704698 10.485206 0.000000 0.000000 0.000000 -1.056370 -0.461798 12.380410 -1.437183 0.811655 -5.147956 -7.434206 -0.358555 9.004154 7.066395 -1.513381 -25.316896 0.000000 0.000000 0.000000 -14.765321 -23.307785 9.494278 -34.493396 -42.154101 7.341306 13.724390 -10.006917 -0.813456 0.000000 0.000000 0.000000 15.981498 12.711370 5.990041 57.496453 32.222630 10.188899 -19.854172 27.888893 -3.165936 0.000000 0.000000 0.000000 
